<svg xmlns="http://www.w3.org/2000/svg" viewBox="0 0 173.24 44.87"><g id="Layer_2" data-name="Layer 2"><g id="OBJECTS"><path d="M45.1,28.82l2.4-4.16a4.47,4.47,0,0,0,0-4.45L38.15,4A4.46,4.46,0,0,0,34.3,1.79H15.59A4.45,4.45,0,0,0,11.74,4L2.38,20.21a4.47,4.47,0,0,0,0,4.45l9.36,16.2a4.43,4.43,0,0,0,3.85,2.22H34.3a4.44,4.44,0,0,0,3.85-2.22l3-5.13" fill="none" stroke="#1d63ff" stroke-linecap="round" stroke-linejoin="round" stroke-width="3.57"/><path d="M45.1,28.82l2.4-4.16a4.47,4.47,0,0,0,0-4.45L38.15,4A4.46,4.46,0,0,0,34.3,1.79H15.59A4.45,4.45,0,0,0,11.74,4L2.38,20.21a4.47,4.47,0,0,0,0,4.45l9.36,16.2a4.43,4.43,0,0,0,3.85,2.22H34.3a4.44,4.44,0,0,0,3.85-2.22l3-5.13" fill="none" stroke="#a1afff" stroke-linecap="round" stroke-linejoin="round" stroke-width="1.79"/><line x1="130.93" y1="38.35" x2="48.91" y2="38.35" fill="none" stroke="#1d63ff" stroke-linecap="round" stroke-linejoin="round" stroke-width="3.57"/><path d="M81.59,6.53H152.3a14.49,14.49,0,0,1,10.82,4.84l7.18,8.05a4.53,4.53,0,0,1,0,6l-7.18,8a14.5,14.5,0,0,1-10.82,4.85H141.53" fill="none" stroke="#1d63ff" stroke-linecap="round" stroke-linejoin="round" stroke-width="3.57"/><line x1="48.91" y1="6.53" x2="70.99" y2="6.53" fill="none" stroke="#1d63ff" stroke-linecap="round" stroke-linejoin="round" stroke-width="3.57"/><line x1="130.93" y1="38.35" x2="48.91" y2="38.35" fill="none" stroke="#a1afff" stroke-linecap="round" stroke-linejoin="round" stroke-width="1.79"/><path d="M81.59,6.53H152.3a14.49,14.49,0,0,1,10.82,4.84l7.18,8.05a4.53,4.53,0,0,1,0,6l-7.18,8a14.5,14.5,0,0,1-10.82,4.85H141.53" fill="none" stroke="#a1afff" stroke-linecap="round" stroke-linejoin="round" stroke-width="1.79"/><line x1="48.91" y1="6.53" x2="70.99" y2="6.53" fill="none" stroke="#a1afff" stroke-linecap="round" stroke-linejoin="round" stroke-width="1.79"/><path d="M26.63,13.08l6.07,6.8a3.84,3.84,0,0,1,0,5.11l-6.07,6.8" fill="none" stroke="#1d63ff" stroke-linecap="round" stroke-linejoin="round" stroke-width="3.57"/><path d="M26.63,13.08l6.07,6.8a3.84,3.84,0,0,1,0,5.11l-6.07,6.8" fill="none" stroke="#a1afff" stroke-linecap="round" stroke-linejoin="round" stroke-width="1.79"/><path d="M19.58,13.08l6.07,6.8a3.84,3.84,0,0,1,0,5.11l-6.07,6.8" fill="none" stroke="#1d63ff" stroke-linecap="round" stroke-linejoin="round" stroke-width="3.57"/><path d="M19.58,13.08l6.07,6.8a3.84,3.84,0,0,1,0,5.11l-6.07,6.8" fill="none" stroke="#a1afff" stroke-linecap="round" stroke-linejoin="round" stroke-width="1.79"/><text transform="translate(60.78 26.79)" font-size="12.97" fill="#a1afff" font-family="TwCenMT-Regular, Tw Cen MT">E<tspan x="5.68" y="0" letter-spacing="-0.03em">X</tspan><tspan x="12.45" y="0" xml:space="preserve" letter-spacing="0em">CHANGE  R</tspan><tspan x="73.91" y="0" letter-spacing="-0.05em">A</tspan><tspan x="81.1" y="0">TE</tspan></text></g></g></svg>